<svg xmlns="http://www.w3.org/2000/svg" xmlns:xlink="http://www.w3.org/1999/xlink" viewBox="0 0 105 131.25" version="1.1" xml:space="preserve" style="" x="0px" y="0px" fill-rule="evenodd" clip-rule="evenodd" stroke-linejoin="round" stroke-miterlimit="1.41421"><g transform="matrix(3.62354,0,0,3.91964,2.5,2.5)"><path d="M13.888,0L13.977,0.001L14.066,0.002L14.155,0.004L14.243,0.007L14.332,0.009L14.42,0.013L14.508,0.017L14.596,0.021L14.684,0.026L14.772,0.031L14.86,0.037L14.947,0.044L15.034,0.051L15.122,0.058L15.209,0.066L15.296,0.074L15.382,0.083L15.469,0.093L15.555,0.103L15.641,0.113L15.727,0.124L15.813,0.135L15.899,0.147L15.984,0.159L16.07,0.172L16.155,0.186L16.24,0.199L16.325,0.214L16.409,0.228L16.494,0.244L16.578,0.259L16.662,0.276L16.746,0.292L16.83,0.309L16.913,0.327L16.997,0.345L17.08,0.363L17.163,0.382L17.245,0.402L17.328,0.422L17.41,0.442L17.492,0.463L17.574,0.484L17.656,0.506L17.738,0.528L17.819,0.551L17.9,0.574L17.981,0.597L18.062,0.621L18.142,0.646L18.222,0.671L18.302,0.696L18.382,0.722L18.462,0.748L18.541,0.775L18.62,0.802L18.699,0.829L18.778,0.857L18.856,0.885L18.934,0.914L19.012,0.943L19.09,0.973L19.168,1.003L19.245,1.034L19.322,1.065L19.399,1.096L19.475,1.128L19.551,1.16L19.627,1.192L19.703,1.225L19.779,1.259L19.854,1.293L19.929,1.327L20.004,1.361L20.078,1.396L20.153,1.432L20.227,1.468L20.3,1.504L20.374,1.541L20.447,1.578L20.52,1.615L20.592,1.653L20.665,1.691L20.737,1.73L20.809,1.769L20.88,1.808L20.952,1.848L21.023,1.888L21.093,1.929L21.164,1.97L21.234,2.011L21.304,2.052L21.373,2.095L21.442,2.137L21.511,2.18L21.58,2.223L21.648,2.267L21.717,2.31L21.784,2.355L21.852,2.399L21.919,2.444L21.986,2.49L22.052,2.536L22.119,2.582L22.185,2.628L22.25,2.675L22.316,2.722L22.381,2.77L22.445,2.818L22.51,2.866L22.574,2.914L22.638,2.963L22.701,3.013L22.764,3.062L22.827,3.112L22.889,3.163L22.951,3.213L23.013,3.264L23.075,3.316L23.136,3.367L23.196,3.419L23.257,3.471L23.317,3.524L23.377,3.577L23.436,3.63L23.495,3.684L23.554,3.738L23.612,3.792L23.67,3.847L23.728,3.902L23.785,3.957L23.842,4.013L23.899,4.068L23.955,4.125L24.011,4.181L24.066,4.238L24.122,4.295L24.176,4.352L24.231,4.41L24.285,4.468L24.339,4.527L24.392,4.585L24.445,4.644L24.497,4.703L24.549,4.763L24.601,4.823L24.653,4.883L24.704,4.943L24.754,5.004L24.805,5.065L24.855,5.126L24.904,5.188L24.953,5.249L25.002,5.311L25.05,5.374L25.098,5.437L25.146,5.499L25.193,5.563L25.239,5.626L25.286,5.69L25.332,5.754L25.377,5.818L25.422,5.883L25.467,5.948L25.511,6.013L25.555,6.078L25.598,6.144L25.641,6.21L25.684,6.276L25.726,6.342L25.768,6.409L25.809,6.476L25.85,6.543L25.891,6.61L25.931,6.678L25.971,6.746L26.01,6.814L26.048,6.882L26.087,6.951L26.125,7.02L26.162,7.089L26.199,7.158L26.236,7.228L26.272,7.298L26.308,7.368L26.343,7.438L26.378,7.509L26.412,7.579L26.446,7.65L26.479,7.722L26.512,7.793L26.545,7.865L26.577,7.936L26.608,8.009L26.64,8.081L26.67,8.153L26.7,8.226L26.73,8.299L26.759,8.372L26.788,8.445L26.817,8.519L26.844,8.593L26.872,8.667L26.899,8.741L26.925,8.815L26.951,8.89L26.977,8.965L27.002,9.04L27.026,9.115L27.05,9.19L27.074,9.266L27.097,9.341L27.119,9.417L27.141,9.494L27.163,9.57L27.184,9.646L27.204,9.723L27.224,9.8L27.244,9.877L27.263,9.954L27.281,10.031L27.299,10.109L27.317,10.187L27.334,10.265L27.35,10.343L27.366,10.421L27.382,10.499L27.397,10.578L27.411,10.657L27.425,10.736L27.438,10.815L27.451,10.894L27.463,10.973L27.475,11.053L27.486,11.133L27.497,11.212L27.507,11.292L27.517,11.373L27.526,11.453L27.535,11.533L27.543,11.614L27.55,11.695L27.557,11.775L27.563,11.856L27.569,11.938L27.575,12.019L27.579,12.1L27.584,12.182L27.587,12.263L27.59,12.345L27.593,12.427L27.595,12.509L27.596,12.592L27.597,12.674L27.597,12.756L27.597,12.839L27.596,12.921L27.595,13.003L27.593,13.085L27.59,13.167L27.587,13.249L27.584,13.331L27.579,13.412L27.575,13.494L27.569,13.575L27.563,13.656L27.557,13.737L27.55,13.818L27.543,13.899L27.535,13.979L27.526,14.06L27.517,14.14L27.507,14.22L27.497,14.3L27.486,14.38L27.475,14.46L27.463,14.539L27.451,14.619L27.438,14.698L27.425,14.777L27.411,14.856L27.397,14.935L27.382,15.013L27.366,15.092L27.35,15.17L27.334,15.248L27.317,15.326L27.299,15.403L27.281,15.481L27.263,15.558L27.244,15.636L27.224,15.713L27.204,15.79L27.184,15.866L27.163,15.943L27.141,16.019L27.119,16.095L27.097,16.171L27.074,16.247L27.05,16.322L27.026,16.398L27.002,16.473L26.977,16.548L26.951,16.623L26.925,16.697L26.899,16.772L26.872,16.846L26.844,16.92L26.817,16.993L26.788,17.067L26.759,17.14L26.73,17.214L26.7,17.287L26.67,17.359L26.64,17.432L26.608,17.504L26.577,17.576L26.545,17.648L26.512,17.72L26.479,17.791L26.446,17.862L26.412,17.933L26.378,18.004L26.343,18.074L26.308,18.145L26.272,18.215L26.236,18.285L26.199,18.354L26.162,18.424L26.125,18.493L26.087,18.562L26.048,18.63L26.01,18.699L25.971,18.767L25.931,18.835L25.891,18.902L25.85,18.97L25.809,19.037L25.768,19.104L25.726,19.17L25.684,19.237L25.641,19.303L25.598,19.369L25.555,19.434L25.511,19.5L25.467,19.565L25.422,19.63L25.377,19.694L25.332,19.759L25.286,19.823L25.239,19.886L25.193,19.95L25.146,20.013L25.098,20.076L25.05,20.139L25.002,20.201L24.953,20.263L24.904,20.325L24.855,20.387L24.805,20.448L24.754,20.509L24.704,20.569L24.653,20.63L24.601,20.69L24.549,20.75L24.497,20.809L24.445,20.868L24.392,20.927L24.339,20.986L24.285,21.044L24.231,21.102L24.176,21.16L24.122,21.218L24.066,21.275L24.011,21.331L23.955,21.388L23.899,21.444L23.842,21.5L23.785,21.556L23.728,21.611L23.67,21.666L23.612,21.72L23.554,21.775L23.495,21.829L23.436,21.882L23.377,21.935L23.317,21.988L23.257,22.041L23.196,22.093L23.136,22.145L23.075,22.197L23.013,22.248L22.951,22.299L22.889,22.35L22.827,22.4L22.764,22.45L22.701,22.5L22.638,22.549L22.574,22.598L22.51,22.647L22.445,22.695L22.381,22.743L22.316,22.79L22.25,22.838L22.185,22.884L22.119,22.931L22.052,22.977L21.986,23.023L21.919,23.068L21.852,23.113L21.784,23.158L21.717,23.202L21.648,23.246L21.58,23.29L21.511,23.333L21.442,23.376L21.373,23.418L21.304,23.46L21.234,23.502L21.164,23.543L21.093,23.584L21.023,23.625L20.952,23.665L20.88,23.704L20.809,23.744L20.737,23.783L20.665,23.821L20.592,23.86L20.52,23.898L20.447,23.935L20.374,23.972L20.3,24.009L20.227,24.045L20.153,24.081L20.078,24.116L20.004,24.151L19.929,24.186L19.854,24.22L19.779,24.254L19.703,24.287L19.627,24.32L19.551,24.353L19.475,24.385L19.399,24.417L19.322,24.448L19.245,24.479L19.168,24.509L19.09,24.539L19.012,24.569L18.934,24.598L18.856,24.627L18.778,24.655L18.699,24.683L18.62,24.711L18.541,24.738L18.462,24.765L18.382,24.791L18.302,24.817L18.222,24.842L18.142,24.867L18.062,24.891L17.981,24.915L17.9,24.939L17.819,24.962L17.738,24.984L17.656,25.007L17.574,25.028L17.492,25.05L17.41,25.07L17.328,25.091L17.245,25.111L17.163,25.13L17.08,25.149L16.997,25.168L16.913,25.186L16.83,25.203L16.746,25.22L16.662,25.237L16.578,25.253L16.494,25.269L16.409,25.284L16.325,25.299L16.24,25.313L16.155,25.327L16.07,25.34L15.984,25.353L15.899,25.365L15.813,25.377L15.727,25.389L15.641,25.4L15.555,25.41L15.469,25.42L15.382,25.429L15.296,25.438L15.209,25.447L15.122,25.455L15.034,25.462L14.947,25.469L14.86,25.475L14.772,25.481L14.684,25.487L14.596,25.492L14.508,25.496L14.42,25.5L14.332,25.503L14.243,25.506L14.155,25.508L14.066,25.51L13.977,25.512L13.888,25.512L13.799,25.513L13.709,25.512L13.62,25.512L13.532,25.51L13.443,25.508L13.354,25.506L13.266,25.503L13.177,25.5L13.089,25.496L13.001,25.492L12.913,25.487L12.825,25.481L12.738,25.475L12.65,25.469L12.563,25.462L12.476,25.455L12.389,25.447L12.302,25.438L12.215,25.429L12.129,25.42L12.042,25.41L11.956,25.4L11.87,25.389L11.784,25.377L11.698,25.365L11.613,25.353L11.528,25.34L11.442,25.327L11.357,25.313L11.273,25.299L11.188,25.284L11.103,25.269L11.019,25.253L10.935,25.237L10.851,25.22L10.768,25.203L10.684,25.186L10.601,25.168L10.518,25.149L10.435,25.13L10.352,25.111L10.269,25.091L10.187,25.07L10.105,25.05L10.023,25.028L9.941,25.007L9.86,24.984L9.778,24.962L9.697,24.939L9.616,24.915L9.536,24.891L9.455,24.867L9.375,24.842L9.295,24.817L9.215,24.791L9.136,24.765L9.056,24.738L8.977,24.711L8.898,24.683L8.82,24.655L8.741,24.627L8.663,24.598L8.585,24.569L8.507,24.539L8.43,24.509L8.353,24.479L8.275,24.448L8.199,24.417L8.122,24.385L8.046,24.353L7.97,24.32L7.894,24.287L7.819,24.254L7.743,24.22L7.668,24.186L7.594,24.151L7.519,24.116L7.445,24.081L7.371,24.045L7.297,24.009L7.224,23.972L7.15,23.935L7.078,23.898L7.005,23.86L6.933,23.821L6.86,23.783L6.789,23.744L6.717,23.704L6.646,23.665L6.575,23.625L6.504,23.584L6.434,23.543L6.364,23.502L6.294,23.46L6.224,23.418L6.155,23.376L6.086,23.333L6.017,23.29L5.949,23.246L5.881,23.202L5.813,23.158L5.746,23.113L5.678,23.068L5.611,23.023L5.545,22.977L5.479,22.931L5.413,22.884L5.347,22.838L5.282,22.79L5.217,22.743L5.152,22.695L5.088,22.647L5.024,22.598L4.96,22.549L4.896,22.5L4.833,22.45L4.771,22.4L4.708,22.35L4.646,22.299L4.584,22.248L4.523,22.197L4.462,22.145L4.401,22.093L4.34,22.041L4.28,21.988L4.221,21.935L4.161,21.882L4.102,21.829L4.043,21.775L3.985,21.72L3.927,21.666L3.869,21.611L3.812,21.556L3.755,21.5L3.699,21.444L3.642,21.388L3.586,21.331L3.531,21.275L3.476,21.218L3.421,21.16L3.367,21.102L3.313,21.044L3.259,20.986L3.206,20.927L3.153,20.868L3.1,20.809L3.048,20.75L2.996,20.69L2.945,20.63L2.894,20.569L2.843,20.509L2.793,20.448L2.743,20.387L2.693,20.325L2.644,20.263L2.596,20.201L2.547,20.139L2.499,20.076L2.452,20.013L2.405,19.95L2.358,19.886L2.312,19.823L2.266,19.759L2.22,19.694L2.175,19.63L2.13,19.565L2.086,19.5L2.042,19.434L1.999,19.369L1.956,19.303L1.913,19.237L1.871,19.17L1.829,19.104L1.788,19.037L1.747,18.97L1.707,18.902L1.666,18.835L1.627,18.767L1.588,18.699L1.549,18.63L1.511,18.562L1.473,18.493L1.435,18.424L1.398,18.354L1.362,18.285L1.325,18.215L1.29,18.145L1.255,18.074L1.22,18.004L1.185,17.933L1.151,17.862L1.118,17.791L1.085,17.72L1.053,17.648L1.021,17.576L0.989,17.504L0.958,17.432L0.927,17.359L0.897,17.287L0.867,17.214L0.838,17.14L0.809,17.067L0.781,16.993L0.753,16.92L0.726,16.846L0.699,16.772L0.672,16.697L0.646,16.623L0.621,16.548L0.596,16.473L0.571,16.398L0.547,16.322L0.524,16.247L0.501,16.171L0.478,16.095L0.456,16.019L0.435,15.943L0.414,15.866L0.393,15.79L0.373,15.713L0.354,15.636L0.335,15.558L0.316,15.481L0.298,15.403L0.281,15.326L0.264,15.248L0.247,15.17L0.231,15.092L0.216,15.013L0.201,14.935L0.186,14.856L0.172,14.777L0.159,14.698L0.146,14.619L0.134,14.539L0.122,14.46L0.111,14.38L0.1,14.3L0.09,14.22L0.08,14.14L0.071,14.06L0.063,13.979L0.055,13.899L0.047,13.818L0.04,13.737L0.034,13.656L0.028,13.575L0.023,13.494L0.018,13.412L0.014,13.331L0.01,13.249L0.007,13.167L0.005,13.085L0.003,13.003L0.001,12.921L0,12.839L0,12.756L0,12.674L0.001,12.592L0.003,12.509L0.005,12.427L0.007,12.345L0.01,12.263L0.014,12.182L0.018,12.1L0.023,12.019L0.028,11.938L0.034,11.856L0.04,11.775L0.047,11.695L0.055,11.614L0.063,11.533L0.071,11.453L0.08,11.373L0.09,11.292L0.1,11.212L0.111,11.133L0.122,11.053L0.134,10.973L0.146,10.894L0.159,10.815L0.172,10.736L0.186,10.657L0.201,10.578L0.216,10.499L0.231,10.421L0.247,10.343L0.264,10.265L0.281,10.187L0.298,10.109L0.316,10.031L0.335,9.954L0.354,9.877L0.373,9.8L0.393,9.723L0.414,9.646L0.435,9.57L0.456,9.494L0.478,9.417L0.501,9.341L0.524,9.266L0.547,9.19L0.571,9.115L0.596,9.04L0.621,8.965L0.646,8.89L0.672,8.815L0.699,8.741L0.726,8.667L0.753,8.593L0.781,8.519L0.809,8.445L0.838,8.372L0.867,8.299L0.897,8.226L0.927,8.153L0.958,8.081L0.989,8.009L1.021,7.936L1.053,7.865L1.085,7.793L1.118,7.722L1.151,7.65L1.185,7.579L1.22,7.509L1.255,7.438L1.29,7.368L1.325,7.298L1.362,7.228L1.398,7.158L1.435,7.089L1.473,7.02L1.511,6.951L1.549,6.882L1.588,6.814L1.627,6.746L1.666,6.678L1.707,6.61L1.747,6.543L1.788,6.476L1.829,6.409L1.871,6.342L1.913,6.276L1.956,6.21L1.999,6.144L2.042,6.078L2.086,6.013L2.13,5.948L2.175,5.883L2.22,5.818L2.266,5.754L2.312,5.69L2.358,5.626L2.405,5.563L2.452,5.499L2.499,5.437L2.547,5.374L2.596,5.311L2.644,5.249L2.693,5.188L2.743,5.126L2.793,5.065L2.843,5.004L2.894,4.943L2.945,4.883L2.996,4.823L3.048,4.763L3.1,4.703L3.153,4.644L3.206,4.585L3.259,4.527L3.313,4.468L3.367,4.41L3.421,4.352L3.476,4.295L3.531,4.238L3.586,4.181L3.642,4.125L3.699,4.068L3.755,4.013L3.812,3.957L3.869,3.902L3.927,3.847L3.985,3.792L4.043,3.738L4.102,3.684L4.161,3.63L4.221,3.577L4.28,3.524L4.34,3.471L4.401,3.419L4.462,3.367L4.523,3.316L4.584,3.264L4.646,3.213L4.708,3.163L4.771,3.112L4.833,3.062L4.896,3.013L4.96,2.963L5.024,2.914L5.088,2.866L5.152,2.818L5.217,2.77L5.282,2.722L5.347,2.675L5.413,2.628L5.479,2.582L5.545,2.536L5.611,2.49L5.678,2.444L5.746,2.399L5.813,2.355L5.881,2.31L5.949,2.267L6.017,2.223L6.086,2.18L6.155,2.137L6.224,2.095L6.294,2.052L6.364,2.011L6.434,1.97L6.504,1.929L6.575,1.888L6.646,1.848L6.717,1.808L6.789,1.769L6.86,1.73L6.933,1.691L7.005,1.653L7.078,1.615L7.15,1.578L7.224,1.541L7.297,1.504L7.371,1.468L7.445,1.432L7.519,1.396L7.594,1.361L7.668,1.327L7.743,1.293L7.819,1.259L7.894,1.225L7.97,1.192L8.046,1.16L8.122,1.128L8.199,1.096L8.275,1.065L8.353,1.034L8.43,1.003L8.507,0.973L8.585,0.943L8.663,0.914L8.741,0.885L8.82,0.857L8.898,0.829L8.977,0.802L9.056,0.775L9.136,0.748L9.215,0.722L9.295,0.696L9.375,0.671L9.455,0.646L9.536,0.621L9.616,0.597L9.697,0.574L9.778,0.551L9.86,0.528L9.941,0.506L10.023,0.484L10.105,0.463L10.187,0.442L10.269,0.422L10.352,0.402L10.435,0.382L10.518,0.363L10.601,0.345L10.684,0.327L10.768,0.309L10.851,0.292L10.935,0.276L11.019,0.259L11.103,0.244L11.188,0.228L11.273,0.214L11.357,0.199L11.442,0.186L11.528,0.172L11.613,0.159L11.698,0.147L11.784,0.135L11.87,0.124L11.956,0.113L12.042,0.103L12.129,0.093L12.215,0.083L12.302,0.074L12.389,0.066L12.476,0.058L12.563,0.051L12.65,0.044L12.738,0.037L12.825,0.031L12.913,0.026L13.001,0.021L13.089,0.017L13.177,0.013L13.266,0.009L13.354,0.007L13.443,0.004L13.532,0.002L13.62,0.001L13.709,0L13.799,0L13.888,0ZM13.716,0.893L13.633,0.894L13.55,0.895L13.467,0.897L13.385,0.899L13.302,0.902L13.22,0.905L13.138,0.908L13.056,0.912L12.974,0.917L12.893,0.922L12.811,0.928L12.73,0.934L12.648,0.94L12.567,0.947L12.486,0.954L12.406,0.962L12.325,0.97L12.245,0.979L12.164,0.988L12.084,0.998L12.004,1.008L11.924,1.019L11.845,1.03L11.765,1.041L11.686,1.053L11.606,1.066L11.527,1.078L11.449,1.092L11.37,1.105L11.291,1.12L11.213,1.134L11.135,1.149L11.057,1.165L10.979,1.181L10.901,1.197L10.824,1.214L10.747,1.231L10.67,1.249L10.593,1.267L10.516,1.285L10.44,1.304L10.363,1.323L10.287,1.343L10.211,1.363L10.135,1.384L10.06,1.405L9.984,1.426L9.909,1.448L9.834,1.471L9.759,1.493L9.685,1.516L9.61,1.54L9.536,1.564L9.462,1.588L9.389,1.613L9.315,1.638L9.242,1.664L9.169,1.69L9.096,1.716L9.023,1.743L8.951,1.77L8.878,1.797L8.806,1.825L8.734,1.854L8.663,1.883L8.591,1.912L8.52,1.941L8.449,1.971L8.379,2.001L8.308,2.032L8.238,2.063L8.168,2.094L8.098,2.126L8.029,2.158L7.96,2.191L7.891,2.224L7.822,2.257L7.753,2.291L7.685,2.325L7.617,2.36L7.549,2.394L7.482,2.43L7.414,2.465L7.347,2.501L7.28,2.537L7.214,2.574L7.148,2.611L7.082,2.648L7.016,2.686L6.95,2.724L6.885,2.762L6.82,2.801L6.755,2.84L6.691,2.88L6.627,2.92L6.563,2.96L6.499,3L6.436,3.041L6.373,3.082L6.31,3.124L6.248,3.166L6.185,3.208L6.123,3.251L6.062,3.294L6,3.337L5.939,3.38L5.879,3.424L5.818,3.468L5.758,3.513L5.698,3.558L5.638,3.603L5.579,3.649L5.52,3.694L5.461,3.741L5.403,3.787L5.345,3.834L5.287,3.881L5.23,3.929L5.172,3.976L5.116,4.024L5.059,4.073L5.003,4.121L4.947,4.17L4.891,4.22L4.836,4.269L4.781,4.319L4.726,4.369L4.672,4.42L4.618,4.471L4.565,4.522L4.511,4.573L4.458,4.625L4.406,4.677L4.353,4.729L4.301,4.782L4.25,4.835L4.198,4.888L4.147,4.941L4.097,4.995L4.046,5.049L3.996,5.103L3.947,5.158L3.898,5.212L3.849,5.268L3.8,5.323L3.752,5.379L3.704,5.435L3.657,5.491L3.609,5.547L3.563,5.604L3.516,5.661L3.47,5.718L3.425,5.776L3.379,5.833L3.334,5.891L3.29,5.95L3.246,6.008L3.202,6.067L3.158,6.126L3.115,6.186L3.072,6.245L3.03,6.305L2.988,6.365L2.947,6.425L2.905,6.486L2.865,6.547L2.824,6.608L2.784,6.669L2.745,6.73L2.705,6.792L2.667,6.854L2.628,6.916L2.59,6.979L2.552,7.041L2.515,7.104L2.478,7.168L2.442,7.231L2.406,7.294L2.37,7.358L2.335,7.422L2.3,7.487L2.266,7.551L2.232,7.616L2.198,7.681L2.165,7.746L2.132,7.811L2.1,7.877L2.068,7.942L2.036,8.008L2.005,8.075L1.975,8.141L1.944,8.208L1.915,8.274L1.885,8.341L1.856,8.409L1.828,8.476L1.8,8.544L1.772,8.611L1.745,8.679L1.718,8.748L1.692,8.816L1.666,8.884L1.64,8.953L1.615,9.022L1.591,9.091L1.567,9.161L1.543,9.23L1.52,9.3L1.497,9.37L1.475,9.44L1.453,9.51L1.432,9.58L1.411,9.651L1.39,9.722L1.37,9.793L1.351,9.864L1.331,9.935L1.313,10.006L1.295,10.078L1.277,10.15L1.26,10.222L1.243,10.294L1.227,10.366L1.211,10.438L1.196,10.511L1.181,10.584L1.167,10.657L1.153,10.73L1.139,10.803L1.126,10.876L1.114,10.95L1.102,11.023L1.091,11.097L1.08,11.171L1.069,11.245L1.059,11.32L1.05,11.394L1.041,11.468L1.032,11.543L1.024,11.618L1.017,11.693L1.01,11.768L1.003,11.843L0.997,11.919L0.992,11.994L0.987,12.07L0.983,12.146L0.979,12.221L0.975,12.297L0.972,12.374L0.97,12.45L0.968,12.526L0.967,12.603L0.966,12.679L0.966,12.756L0.966,12.833L0.967,12.91L0.968,12.986L0.97,13.063L0.972,13.139L0.975,13.215L0.979,13.291L0.983,13.367L0.987,13.443L0.992,13.518L0.997,13.594L1.003,13.669L1.01,13.745L1.017,13.82L1.024,13.895L1.032,13.969L1.041,14.044L1.05,14.119L1.059,14.193L1.069,14.267L1.08,14.341L1.091,14.415L1.102,14.489L1.114,14.563L1.126,14.636L1.139,14.71L1.153,14.783L1.167,14.856L1.181,14.929L1.196,15.002L1.211,15.074L1.227,15.147L1.243,15.219L1.26,15.291L1.277,15.363L1.295,15.435L1.313,15.506L1.331,15.578L1.351,15.649L1.37,15.72L1.39,15.791L1.411,15.862L1.432,15.932L1.453,16.003L1.475,16.073L1.497,16.143L1.52,16.213L1.543,16.282L1.567,16.352L1.591,16.421L1.615,16.49L1.64,16.559L1.666,16.628L1.692,16.697L1.718,16.765L1.745,16.833L1.772,16.901L1.8,16.969L1.828,17.037L1.856,17.104L1.885,17.171L1.915,17.238L1.944,17.305L1.975,17.372L2.005,17.438L2.036,17.504L2.068,17.57L2.1,17.636L2.132,17.701L2.165,17.767L2.198,17.832L2.232,17.897L2.266,17.961L2.3,18.026L2.335,18.09L2.37,18.154L2.406,18.218L2.442,18.282L2.478,18.345L2.515,18.408L2.552,18.471L2.59,18.534L2.628,18.596L2.667,18.658L2.705,18.72L2.745,18.782L2.784,18.844L2.824,18.905L2.865,18.966L2.905,19.027L2.947,19.087L2.988,19.148L3.03,19.208L3.072,19.267L3.115,19.327L3.158,19.386L3.202,19.445L3.246,19.504L3.29,19.563L3.334,19.621L3.379,19.679L3.425,19.737L3.47,19.794L3.516,19.852L3.563,19.909L3.609,19.965L3.657,20.022L3.704,20.078L3.752,20.134L3.8,20.19L3.849,20.245L3.898,20.3L3.947,20.355L3.996,20.409L4.046,20.464L4.097,20.518L4.147,20.571L4.198,20.625L4.25,20.678L4.301,20.731L4.353,20.783L4.406,20.836L4.458,20.888L4.511,20.939L4.564,20.991L4.618,21.042L4.672,21.093L4.726,21.143L4.781,21.193L4.836,21.243L4.891,21.293L4.947,21.342L5.003,21.391L5.059,21.44L5.116,21.488L5.172,21.536L5.23,21.584L5.287,21.631L5.345,21.679L5.403,21.725L5.461,21.772L5.52,21.818L5.579,21.864L5.638,21.909L5.698,21.955L5.758,22L5.818,22.044L5.879,22.088L5.939,22.132L6,22.176L6.062,22.219L6.123,22.262L6.185,22.304L6.248,22.347L6.31,22.389L6.373,22.43L6.436,22.471L6.499,22.512L6.563,22.553L6.627,22.593L6.691,22.633L6.755,22.672L6.82,22.711L6.885,22.75L6.95,22.789L7.016,22.827L7.082,22.864L7.148,22.902L7.214,22.939L7.28,22.975L7.347,23.012L7.414,23.047L7.482,23.083L7.549,23.118L7.617,23.153L7.685,23.187L7.753,23.222L7.822,23.255L7.891,23.289L7.96,23.321L8.029,23.354L8.098,23.386L8.168,23.418L8.238,23.45L8.308,23.481L8.379,23.511L8.449,23.542L8.52,23.571L8.591,23.601L8.663,23.63L8.734,23.659L8.806,23.687L8.878,23.715L8.951,23.743L9.023,23.77L9.096,23.797L9.169,23.823L9.242,23.849L9.315,23.874L9.389,23.9L9.462,23.924L9.536,23.949L9.61,23.973L9.685,23.996L9.759,24.019L9.834,24.042L9.909,24.064L9.984,24.086L10.06,24.108L10.135,24.129L10.211,24.149L10.287,24.169L10.363,24.189L10.44,24.208L10.516,24.227L10.593,24.246L10.67,24.264L10.747,24.282L10.824,24.299L10.901,24.316L10.979,24.332L11.057,24.348L11.135,24.363L11.213,24.378L11.291,24.393L11.37,24.407L11.449,24.421L11.527,24.434L11.606,24.447L11.686,24.459L11.765,24.471L11.845,24.483L11.924,24.494L12.004,24.504L12.084,24.515L12.164,24.524L12.245,24.533L12.325,24.542L12.406,24.55L12.486,24.558L12.567,24.566L12.648,24.573L12.73,24.579L12.811,24.585L12.893,24.59L12.974,24.595L13.056,24.6L13.138,24.604L13.22,24.608L13.302,24.611L13.385,24.614L13.467,24.616L13.55,24.617L13.633,24.619L13.716,24.619L13.799,24.62L13.882,24.619L13.965,24.619L14.047,24.617L14.13,24.616L14.213,24.614L14.295,24.611L14.377,24.608L14.459,24.604L14.541,24.6L14.623,24.595L14.705,24.59L14.786,24.585L14.868,24.579L14.949,24.573L15.03,24.566L15.111,24.558L15.192,24.55L15.272,24.542L15.353,24.533L15.433,24.524L15.513,24.515L15.593,24.504L15.673,24.494L15.753,24.483L15.832,24.471L15.912,24.459L15.991,24.447L16.07,24.434L16.149,24.421L16.227,24.407L16.306,24.393L16.384,24.378L16.462,24.363L16.54,24.348L16.618,24.332L16.696,24.316L16.773,24.299L16.851,24.282L16.928,24.264L17.005,24.246L17.081,24.227L17.158,24.208L17.234,24.189L17.31,24.169L17.386,24.149L17.462,24.129L17.538,24.108L17.613,24.086L17.688,24.064L17.763,24.042L17.838,24.019L17.912,23.996L17.987,23.973L18.061,23.949L18.135,23.924L18.209,23.9L18.282,23.874L18.356,23.849L18.429,23.823L18.502,23.797L18.574,23.77L18.647,23.743L18.719,23.715L18.791,23.687L18.863,23.659L18.934,23.63L19.006,23.601L19.077,23.571L19.148,23.542L19.219,23.511L19.289,23.481L19.359,23.45L19.429,23.418L19.499,23.386L19.568,23.354L19.638,23.321L19.707,23.289L19.776,23.255L19.844,23.222L19.912,23.187L19.98,23.153L20.048,23.118L20.116,23.083L20.183,23.047L20.25,23.012L20.317,22.975L20.383,22.939L20.45,22.902L20.516,22.864L20.582,22.827L20.647,22.789L20.712,22.75L20.777,22.711L20.842,22.672L20.906,22.633L20.971,22.593L21.034,22.553L21.098,22.512L21.161,22.471L21.224,22.43L21.287,22.389L21.35,22.347L21.412,22.304L21.474,22.262L21.536,22.219L21.597,22.176L21.658,22.132L21.719,22.088L21.779,22.044L21.839,22L21.899,21.955L21.959,21.909L22.018,21.864L22.077,21.818L22.136,21.772L22.194,21.725L22.252,21.679L22.31,21.631L22.368,21.584L22.425,21.536L22.482,21.488L22.538,21.44L22.595,21.391L22.65,21.342L22.706,21.293L22.761,21.243L22.816,21.193L22.871,21.143L22.925,21.093L22.979,21.042L23.033,20.991L23.086,20.939L23.139,20.888L23.192,20.836L23.244,20.783L23.296,20.731L23.348,20.678L23.399,20.625L23.45,20.571L23.501,20.518L23.551,20.464L23.601,20.409L23.651,20.355L23.7,20.3L23.749,20.245L23.797,20.19L23.845,20.134L23.893,20.078L23.941,20.022L23.988,19.965L24.035,19.909L24.081,19.852L24.127,19.794L24.173,19.737L24.218,19.679L24.263,19.621L24.308,19.563L24.352,19.504L24.396,19.445L24.439,19.386L24.482,19.327L24.525,19.267L24.567,19.208L24.609,19.148L24.651,19.087L24.692,19.027L24.733,18.966L24.773,18.905L24.813,18.844L24.853,18.782L24.892,18.72L24.931,18.658L24.969,18.596L25.007,18.534L25.045,18.471L25.082,18.408L25.119,18.345L25.156,18.282L25.192,18.218L25.227,18.154L25.262,18.09L25.297,18.026L25.332,17.961L25.366,17.897L25.399,17.832L25.432,17.767L25.465,17.701L25.498,17.636L25.529,17.57L25.561,17.504L25.592,17.438L25.623,17.372L25.653,17.305L25.683,17.238L25.712,17.171L25.741,17.104L25.77,17.037L25.798,16.969L25.825,16.901L25.853,16.833L25.879,16.765L25.906,16.697L25.932,16.628L25.957,16.559L25.982,16.49L26.007,16.421L26.031,16.352L26.054,16.282L26.077,16.213L26.1,16.143L26.123,16.073L26.144,16.003L26.166,15.932L26.187,15.862L26.207,15.791L26.227,15.72L26.247,15.649L26.266,15.578L26.284,15.506L26.303,15.435L26.32,15.363L26.338,15.291L26.354,15.219L26.371,15.147L26.386,15.074L26.402,15.002L26.416,14.929L26.431,14.856L26.445,14.783L26.458,14.71L26.471,14.636L26.483,14.563L26.495,14.489L26.507,14.415L26.518,14.341L26.528,14.267L26.538,14.193L26.548,14.119L26.557,14.044L26.565,13.969L26.573,13.895L26.581,13.82L26.587,13.745L26.594,13.669L26.6,13.594L26.605,13.518L26.61,13.443L26.615,13.367L26.619,13.291L26.622,13.215L26.625,13.139L26.627,13.063L26.629,12.986L26.63,12.91L26.631,12.833L26.631,12.756L26.631,12.679L26.63,12.603L26.629,12.526L26.627,12.45L26.625,12.374L26.622,12.297L26.619,12.221L26.615,12.146L26.61,12.07L26.605,11.994L26.6,11.919L26.594,11.843L26.587,11.768L26.581,11.693L26.573,11.618L26.565,11.543L26.557,11.468L26.548,11.394L26.538,11.32L26.528,11.245L26.518,11.171L26.507,11.097L26.495,11.023L26.483,10.95L26.471,10.876L26.458,10.803L26.445,10.73L26.431,10.657L26.416,10.584L26.402,10.511L26.386,10.438L26.371,10.366L26.354,10.294L26.338,10.222L26.32,10.15L26.303,10.078L26.284,10.006L26.266,9.935L26.247,9.864L26.227,9.793L26.207,9.722L26.187,9.651L26.166,9.58L26.144,9.51L26.123,9.44L26.1,9.37L26.077,9.3L26.054,9.23L26.031,9.161L26.007,9.091L25.982,9.022L25.957,8.953L25.932,8.884L25.906,8.816L25.879,8.748L25.853,8.679L25.825,8.611L25.798,8.544L25.77,8.476L25.741,8.409L25.712,8.341L25.683,8.274L25.653,8.208L25.623,8.141L25.592,8.075L25.561,8.008L25.53,7.942L25.498,7.877L25.465,7.811L25.432,7.746L25.399,7.681L25.366,7.616L25.332,7.551L25.297,7.487L25.262,7.422L25.227,7.358L25.192,7.294L25.156,7.231L25.119,7.168L25.082,7.104L25.045,7.041L25.007,6.979L24.969,6.916L24.931,6.854L24.892,6.792L24.853,6.73L24.813,6.669L24.773,6.608L24.733,6.547L24.692,6.486L24.651,6.425L24.609,6.365L24.567,6.305L24.525,6.245L24.482,6.186L24.439,6.126L24.396,6.067L24.352,6.008L24.308,5.95L24.263,5.891L24.218,5.833L24.173,5.776L24.127,5.718L24.081,5.661L24.035,5.604L23.988,5.547L23.941,5.491L23.893,5.435L23.845,5.379L23.797,5.323L23.749,5.268L23.7,5.212L23.651,5.158L23.601,5.103L23.551,5.049L23.501,4.995L23.45,4.941L23.399,4.888L23.348,4.835L23.296,4.782L23.244,4.729L23.192,4.677L23.139,4.625L23.086,4.573L23.033,4.522L22.979,4.471L22.925,4.42L22.871,4.369L22.816,4.319L22.761,4.269L22.706,4.22L22.65,4.17L22.595,4.121L22.538,4.073L22.482,4.024L22.425,3.976L22.368,3.929L22.31,3.881L22.252,3.834L22.194,3.787L22.136,3.741L22.077,3.694L22.018,3.649L21.959,3.603L21.899,3.558L21.839,3.513L21.779,3.468L21.719,3.424L21.658,3.38L21.597,3.337L21.536,3.294L21.474,3.251L21.412,3.208L21.35,3.166L21.287,3.124L21.224,3.082L21.161,3.041L21.098,3L21.034,2.96L20.971,2.92L20.906,2.88L20.842,2.84L20.777,2.801L20.712,2.762L20.647,2.724L20.582,2.686L20.516,2.648L20.45,2.611L20.384,2.574L20.317,2.537L20.25,2.501L20.183,2.465L20.116,2.43L20.048,2.394L19.98,2.36L19.912,2.325L19.844,2.291L19.776,2.257L19.707,2.224L19.638,2.191L19.568,2.158L19.499,2.126L19.429,2.094L19.359,2.063L19.289,2.032L19.219,2.001L19.148,1.971L19.077,1.941L19.006,1.912L18.934,1.883L18.863,1.854L18.791,1.825L18.719,1.797L18.647,1.77L18.574,1.743L18.502,1.716L18.429,1.69L18.356,1.664L18.282,1.638L18.209,1.613L18.135,1.588L18.061,1.564L17.987,1.54L17.912,1.516L17.838,1.493L17.763,1.471L17.688,1.448L17.613,1.426L17.538,1.405L17.462,1.384L17.386,1.363L17.31,1.343L17.234,1.323L17.158,1.304L17.081,1.285L17.005,1.267L16.928,1.249L16.851,1.231L16.773,1.214L16.696,1.197L16.618,1.181L16.54,1.165L16.462,1.149L16.384,1.134L16.306,1.12L16.227,1.105L16.149,1.092L16.07,1.078L15.991,1.066L15.912,1.053L15.832,1.041L15.753,1.03L15.673,1.019L15.593,1.008L15.513,0.998L15.433,0.988L15.353,0.979L15.272,0.97L15.192,0.962L15.111,0.954L15.03,0.947L14.949,0.94L14.868,0.934L14.786,0.928L14.705,0.922L14.623,0.917L14.541,0.912L14.459,0.908L14.377,0.905L14.295,0.902L14.213,0.899L14.13,0.897L14.047,0.895L13.965,0.894L13.882,0.893L13.799,0.893L13.716,0.893Z" style="" fill="black"/></g><g transform="matrix(3.33333,0,0,3.33333,-2.02609,2.27008)"><path d="M16.438,8.821L16.519,8.822L16.599,8.825L16.678,8.828L16.758,8.833L16.837,8.838L16.916,8.845L16.995,8.852L17.074,8.861L17.152,8.87L17.23,8.881L17.308,8.892L17.385,8.904L17.462,8.918L17.539,8.932L17.616,8.947L17.692,8.963L17.768,8.98L17.843,8.998L17.918,9.017L17.993,9.037L18.068,9.057L18.142,9.079L18.215,9.101L18.288,9.125L18.361,9.149L18.434,9.174L18.506,9.2L18.578,9.227L18.649,9.254L18.72,9.283L18.79,9.312L18.86,9.342L18.929,9.373L18.998,9.405L19.067,9.437L19.135,9.471L19.203,9.505L19.27,9.54L19.337,9.575L19.403,9.612L19.468,9.649L19.534,9.687L19.598,9.726L19.662,9.765L19.726,9.806L19.789,9.847L19.852,9.888L19.914,9.931L19.975,9.974L20.036,10.018L20.097,10.063L20.156,10.108L20.216,10.154L20.274,10.201L20.332,10.248L20.39,10.296L20.447,10.345L20.503,10.394L20.559,10.444L20.614,10.495L20.669,10.546L20.723,10.598L20.776,10.651L20.828,10.704L20.88,10.758L20.932,10.813L20.983,10.868L21.033,10.924L21.082,10.98L21.131,11.037L21.179,11.094L21.226,11.152L21.273,11.211L21.319,11.27L21.364,11.33L21.409,11.391L21.453,11.452L21.496,11.513L21.538,11.575L21.58,11.638L21.621,11.701L21.661,11.764L21.701,11.829L21.74,11.893L21.778,11.958L21.815,12.024L21.851,12.09L21.887,12.157L21.922,12.224L21.956,12.292L21.99,12.36L22.022,12.428L22.054,12.497L22.085,12.567L22.115,12.637L22.144,12.707L22.173,12.778L22.2,12.849L22.227,12.921L22.253,12.993L22.278,13.065L22.302,13.138L22.325,13.212L22.348,13.285L22.369,13.359L22.39,13.434L22.41,13.508L22.429,13.584L22.447,13.659L22.464,13.735L22.48,13.811L22.495,13.888L22.509,13.964L22.522,14.041L22.535,14.119L22.546,14.197L22.557,14.275L22.566,14.353L22.575,14.432L22.582,14.51L22.589,14.589L22.594,14.669L22.599,14.748L22.602,14.828L22.605,14.908L22.606,14.989L22.607,15.069L22.606,15.149L22.605,15.23L22.602,15.31L22.599,15.39L22.594,15.469L22.589,15.549L22.582,15.628L22.575,15.706L22.566,15.785L22.557,15.863L22.546,15.941L22.535,16.019L22.522,16.096L22.509,16.174L22.495,16.25L22.48,16.327L22.464,16.403L22.447,16.479L22.429,16.554L22.41,16.63L22.39,16.704L22.369,16.779L22.348,16.853L22.325,16.926L22.302,17L22.278,17.073L22.253,17.145L22.227,17.217L22.2,17.289L22.173,17.36L22.144,17.431L22.115,17.501L22.085,17.571L22.054,17.641L22.022,17.71L21.99,17.778L21.956,17.846L21.922,17.914L21.887,17.981L21.851,18.048L21.815,18.114L21.778,18.18L21.74,18.245L21.701,18.309L21.661,18.374L21.621,18.437L21.58,18.5L21.538,18.563L21.496,18.625L21.453,18.686L21.409,18.747L21.364,18.808L21.319,18.868L21.273,18.927L21.226,18.986L21.179,19.044L21.131,19.101L21.082,19.158L21.033,19.214L20.983,19.27L20.932,19.325L20.88,19.38L20.828,19.434L20.776,19.487L20.723,19.54L20.669,19.592L20.614,19.643L20.559,19.694L20.503,19.744L20.447,19.793L20.39,19.842L20.332,19.89L20.274,19.937L20.216,19.984L20.156,20.03L20.097,20.075L20.036,20.12L19.975,20.164L19.914,20.207L19.852,20.249L19.789,20.291L19.726,20.332L19.662,20.373L19.598,20.412L19.534,20.451L19.468,20.489L19.403,20.526L19.337,20.563L19.27,20.598L19.203,20.633L19.135,20.667L19.067,20.701L18.998,20.733L18.929,20.765L18.86,20.796L18.79,20.826L18.72,20.855L18.649,20.884L18.578,20.911L18.506,20.938L18.434,20.964L18.361,20.989L18.288,21.013L18.215,21.037L18.142,21.059L18.068,21.081L17.993,21.101L17.918,21.121L17.843,21.14L17.768,21.158L17.692,21.175L17.616,21.191L17.539,21.206L17.462,21.22L17.385,21.234L17.308,21.246L17.23,21.257L17.152,21.268L17.074,21.277L16.995,21.286L16.916,21.293L16.837,21.3L16.758,21.305L16.678,21.31L16.599,21.313L16.519,21.316L16.438,21.317L16.358,21.318L16.277,21.317L16.197,21.316L16.117,21.313L16.037,21.31L15.958,21.305L15.878,21.3L15.799,21.293L15.72,21.286L15.642,21.277L15.563,21.268L15.485,21.257L15.408,21.246L15.33,21.234L15.253,21.22L15.176,21.206L15.1,21.191L15.024,21.175L14.948,21.158L14.872,21.14L14.797,21.121L14.723,21.101L14.648,21.081L14.574,21.059L14.5,21.037L14.427,21.013L14.354,20.989L14.282,20.964L14.21,20.938L14.138,20.911L14.067,20.884L13.996,20.855L13.926,20.826L13.856,20.796L13.786,20.765L13.717,20.733L13.649,20.701L13.581,20.667L13.513,20.633L13.446,20.598L13.379,20.563L13.313,20.526L13.247,20.489L13.182,20.451L13.117,20.412L13.053,20.373L12.99,20.332L12.927,20.291L12.864,20.249L12.802,20.207L12.74,20.164L12.679,20.12L12.619,20.075L12.559,20.03L12.5,19.984L12.441,19.937L12.383,19.89L12.326,19.842L12.269,19.793L12.212,19.744L12.157,19.694L12.102,19.643L12.047,19.592L11.993,19.54L11.94,19.487L11.887,19.434L11.835,19.38L11.784,19.325L11.733,19.27L11.683,19.214L11.634,19.158L11.585,19.101L11.537,19.044L11.49,18.986L11.443,18.927L11.397,18.868L11.351,18.808L11.307,18.747L11.263,18.686L11.22,18.625L11.177,18.563L11.136,18.5L11.095,18.437L11.054,18.374L11.015,18.309L10.976,18.245L10.938,18.18L10.901,18.114L10.864,18.048L10.828,17.981L10.794,17.914L10.759,17.846L10.726,17.778L10.694,17.71L10.662,17.641L10.631,17.571L10.601,17.501L10.571,17.431L10.543,17.36L10.515,17.289L10.489,17.217L10.463,17.145L10.438,17.073L10.414,17L10.39,16.926L10.368,16.853L10.346,16.779L10.326,16.704L10.306,16.63L10.287,16.554L10.269,16.479L10.252,16.403L10.236,16.327L10.221,16.25L10.207,16.174L10.193,16.096L10.181,16.019L10.169,15.941L10.159,15.863L10.15,15.785L10.141,15.706L10.134,15.628L10.127,15.549L10.122,15.469L10.117,15.39L10.113,15.31L10.111,15.23L10.109,15.149L10.109,15.069L10.109,14.989L10.111,14.908L10.113,14.828L10.117,14.748L10.122,14.669L10.127,14.589L10.134,14.51L10.141,14.432L10.15,14.353L10.159,14.275L10.169,14.197L10.181,14.119L10.193,14.041L10.207,13.964L10.221,13.888L10.236,13.811L10.252,13.735L10.269,13.659L10.287,13.584L10.306,13.508L10.326,13.434L10.346,13.359L10.368,13.285L10.39,13.212L10.414,13.138L10.438,13.065L10.463,12.993L10.489,12.921L10.515,12.849L10.543,12.778L10.571,12.707L10.601,12.637L10.631,12.567L10.662,12.497L10.694,12.428L10.726,12.36L10.759,12.292L10.794,12.224L10.828,12.157L10.864,12.09L10.901,12.024L10.938,11.958L10.976,11.893L11.015,11.829L11.054,11.764L11.095,11.701L11.136,11.638L11.177,11.575L11.22,11.513L11.263,11.452L11.307,11.391L11.351,11.33L11.397,11.27L11.443,11.211L11.49,11.152L11.537,11.094L11.585,11.037L11.634,10.98L11.683,10.924L11.733,10.868L11.784,10.813L11.835,10.758L11.887,10.704L11.94,10.651L11.993,10.598L12.047,10.546L12.102,10.495L12.157,10.444L12.212,10.394L12.269,10.345L12.326,10.296L12.383,10.248L12.441,10.201L12.5,10.154L12.559,10.108L12.619,10.063L12.679,10.018L12.74,9.974L12.802,9.931L12.864,9.888L12.927,9.847L12.99,9.806L13.053,9.765L13.117,9.726L13.182,9.687L13.247,9.649L13.313,9.612L13.379,9.575L13.446,9.54L13.513,9.505L13.581,9.471L13.649,9.437L13.717,9.405L13.786,9.373L13.856,9.342L13.926,9.312L13.996,9.283L14.067,9.254L14.138,9.227L14.21,9.2L14.282,9.174L14.354,9.149L14.427,9.125L14.5,9.101L14.574,9.079L14.648,9.057L14.723,9.037L14.797,9.017L14.872,8.998L14.948,8.98L15.024,8.963L15.1,8.947L15.176,8.932L15.253,8.918L15.33,8.904L15.408,8.892L15.485,8.881L15.563,8.87L15.642,8.861L15.72,8.852L15.799,8.845L15.878,8.838L15.958,8.833L16.037,8.828L16.117,8.825L16.197,8.822L16.277,8.821L16.358,8.82L16.438,8.821ZM16.291,9.87L16.224,9.872L16.157,9.874L16.09,9.877L16.024,9.881L15.958,9.885L15.892,9.891L15.827,9.897L15.761,9.904L15.696,9.912L15.631,9.921L15.567,9.93L15.502,9.94L15.438,9.951L15.374,9.963L15.311,9.976L15.247,9.989L15.184,10.003L15.122,10.018L15.059,10.034L14.997,10.05L14.935,10.067L14.874,10.085L14.813,10.104L14.752,10.123L14.691,10.143L14.631,10.164L14.571,10.186L14.511,10.208L14.452,10.231L14.393,10.255L14.335,10.279L14.277,10.304L14.219,10.33L14.162,10.356L14.105,10.383L14.048,10.411L13.992,10.439L13.936,10.468L13.881,10.498L13.826,10.528L13.771,10.559L13.717,10.591L13.663,10.623L13.609,10.656L13.556,10.69L13.504,10.724L13.452,10.758L13.4,10.794L13.349,10.83L13.298,10.866L13.248,10.903L13.198,10.941L13.149,10.979L13.1,11.018L13.052,11.058L13.004,11.098L12.956,11.138L12.909,11.18L12.863,11.221L12.817,11.264L12.772,11.306L12.727,11.35L12.682,11.393L12.638,11.438L12.595,11.483L12.552,11.528L12.51,11.574L12.468,11.621L12.427,11.667L12.387,11.715L12.347,11.763L12.307,11.811L12.268,11.86L12.23,11.909L12.192,11.959L12.155,12.009L12.119,12.06L12.083,12.111L12.047,12.163L12.013,12.215L11.978,12.268L11.945,12.321L11.912,12.374L11.88,12.428L11.848,12.482L11.817,12.537L11.787,12.592L11.757,12.647L11.728,12.703L11.7,12.759L11.672,12.816L11.645,12.873L11.618,12.93L11.593,12.988L11.568,13.046L11.543,13.105L11.52,13.163L11.497,13.223L11.475,13.282L11.453,13.342L11.432,13.402L11.412,13.463L11.393,13.524L11.374,13.585L11.356,13.646L11.339,13.708L11.323,13.77L11.307,13.833L11.292,13.895L11.278,13.958L11.265,14.022L11.252,14.085L11.24,14.149L11.229,14.213L11.219,14.278L11.209,14.342L11.201,14.407L11.193,14.472L11.186,14.538L11.179,14.603L11.174,14.669L11.169,14.735L11.166,14.802L11.163,14.868L11.161,14.935L11.159,15.002L11.159,15.069L11.159,15.136L11.161,15.203L11.163,15.27L11.166,15.336L11.169,15.403L11.174,15.469L11.179,15.535L11.186,15.6L11.193,15.666L11.201,15.731L11.209,15.796L11.219,15.86L11.229,15.925L11.24,15.989L11.252,16.053L11.265,16.116L11.278,16.179L11.292,16.242L11.307,16.305L11.323,16.368L11.339,16.43L11.356,16.492L11.374,16.553L11.393,16.614L11.412,16.675L11.432,16.736L11.453,16.796L11.475,16.856L11.497,16.915L11.52,16.975L11.543,17.033L11.568,17.092L11.593,17.15L11.618,17.208L11.645,17.265L11.672,17.322L11.7,17.379L11.728,17.435L11.757,17.491L11.787,17.546L11.817,17.601L11.848,17.656L11.88,17.71L11.912,17.764L11.945,17.817L11.978,17.87L12.013,17.923L12.047,17.975L12.083,18.027L12.119,18.078L12.155,18.128L12.192,18.179L12.23,18.229L12.268,18.278L12.307,18.327L12.347,18.375L12.387,18.423L12.427,18.471L12.468,18.517L12.51,18.564L12.552,18.61L12.595,18.655L12.638,18.7L12.682,18.744L12.727,18.788L12.772,18.832L12.817,18.874L12.863,18.917L12.909,18.958L12.956,19L13.004,19.04L13.052,19.08L13.1,19.12L13.149,19.158L13.198,19.197L13.248,19.235L13.298,19.272L13.349,19.308L13.4,19.344L13.452,19.38L13.504,19.414L13.556,19.448L13.609,19.482L13.663,19.515L13.717,19.547L13.771,19.579L13.826,19.61L13.881,19.64L13.936,19.67L13.992,19.699L14.048,19.727L14.105,19.755L14.162,19.782L14.219,19.808L14.277,19.834L14.335,19.859L14.393,19.883L14.452,19.907L14.511,19.93L14.571,19.952L14.631,19.974L14.691,19.995L14.752,20.015L14.813,20.034L14.874,20.053L14.935,20.071L14.997,20.088L15.059,20.104L15.122,20.12L15.184,20.135L15.247,20.149L15.311,20.162L15.374,20.175L15.438,20.187L15.502,20.198L15.567,20.208L15.631,20.217L15.696,20.226L15.761,20.234L15.827,20.241L15.892,20.247L15.958,20.253L16.024,20.257L16.09,20.261L16.157,20.264L16.224,20.266L16.291,20.268L16.358,20.268L16.425,20.268L16.492,20.266L16.559,20.264L16.625,20.261L16.692,20.257L16.758,20.253L16.823,20.247L16.889,20.241L16.954,20.234L17.02,20.226L17.084,20.217L17.149,20.208L17.214,20.198L17.278,20.187L17.341,20.175L17.405,20.162L17.468,20.149L17.531,20.135L17.594,20.12L17.656,20.104L17.719,20.088L17.78,20.071L17.842,20.053L17.903,20.034L17.964,20.015L18.025,19.995L18.085,19.974L18.145,19.952L18.204,19.93L18.263,19.907L18.322,19.883L18.381,19.859L18.439,19.834L18.497,19.808L18.554,19.782L18.611,19.755L18.668,19.727L18.724,19.699L18.78,19.67L18.835,19.64L18.89,19.61L18.945,19.579L18.999,19.547L19.053,19.515L19.106,19.482L19.159,19.448L19.212,19.414L19.264,19.38L19.315,19.344L19.367,19.308L19.417,19.272L19.468,19.235L19.517,19.197L19.567,19.158L19.616,19.12L19.664,19.08L19.712,19.04L19.759,19L19.806,18.958L19.853,18.917L19.899,18.874L19.944,18.832L19.989,18.788L20.033,18.744L20.077,18.7L20.12,18.655L20.163,18.61L20.206,18.564L20.247,18.517L20.288,18.471L20.329,18.423L20.369,18.375L20.408,18.327L20.447,18.278L20.486,18.229L20.523,18.179L20.561,18.128L20.597,18.078L20.633,18.027L20.668,17.975L20.703,17.923L20.737,17.87L20.771,17.817L20.804,17.764L20.836,17.71L20.868,17.656L20.899,17.601L20.929,17.546L20.959,17.491L20.988,17.435L21.016,17.379L21.044,17.322L21.071,17.265L21.097,17.208L21.123,17.15L21.148,17.092L21.172,17.033L21.196,16.975L21.219,16.915L21.241,16.856L21.263,16.796L21.283,16.736L21.304,16.675L21.323,16.614L21.342,16.553L21.359,16.492L21.377,16.43L21.393,16.368L21.409,16.305L21.424,16.242L21.438,16.179L21.451,16.116L21.464,16.053L21.476,15.989L21.487,15.925L21.497,15.86L21.506,15.796L21.515,15.731L21.523,15.666L21.53,15.6L21.536,15.535L21.542,15.469L21.546,15.403L21.55,15.336L21.553,15.27L21.555,15.203L21.556,15.136L21.557,15.069L21.556,15.002L21.555,14.935L21.553,14.868L21.55,14.802L21.546,14.735L21.542,14.669L21.536,14.603L21.53,14.538L21.523,14.472L21.515,14.407L21.506,14.342L21.497,14.278L21.487,14.213L21.476,14.149L21.464,14.085L21.451,14.022L21.438,13.958L21.424,13.895L21.409,13.833L21.393,13.77L21.377,13.708L21.359,13.646L21.342,13.585L21.323,13.524L21.304,13.463L21.283,13.402L21.263,13.342L21.241,13.282L21.219,13.223L21.196,13.163L21.172,13.105L21.148,13.046L21.123,12.988L21.097,12.93L21.071,12.873L21.044,12.816L21.016,12.759L20.988,12.703L20.959,12.647L20.929,12.592L20.899,12.537L20.868,12.482L20.836,12.428L20.804,12.374L20.771,12.321L20.737,12.268L20.703,12.215L20.668,12.163L20.633,12.111L20.597,12.06L20.561,12.009L20.523,11.959L20.486,11.909L20.447,11.86L20.408,11.811L20.369,11.763L20.329,11.715L20.288,11.667L20.247,11.621L20.206,11.574L20.163,11.528L20.12,11.483L20.077,11.438L20.033,11.393L19.989,11.35L19.944,11.306L19.899,11.264L19.853,11.221L19.806,11.18L19.759,11.138L19.712,11.098L19.664,11.058L19.616,11.018L19.567,10.979L19.517,10.941L19.468,10.903L19.417,10.866L19.367,10.83L19.315,10.794L19.264,10.758L19.212,10.724L19.159,10.69L19.106,10.656L19.053,10.623L18.999,10.591L18.945,10.559L18.89,10.528L18.835,10.498L18.78,10.468L18.724,10.439L18.668,10.411L18.611,10.383L18.554,10.356L18.497,10.33L18.439,10.304L18.381,10.279L18.322,10.255L18.263,10.231L18.204,10.208L18.145,10.186L18.085,10.164L18.025,10.143L17.964,10.123L17.903,10.104L17.842,10.085L17.78,10.067L17.719,10.05L17.656,10.034L17.594,10.018L17.531,10.003L17.468,9.989L17.405,9.976L17.341,9.963L17.278,9.951L17.214,9.94L17.149,9.93L17.084,9.921L17.02,9.912L16.954,9.904L16.889,9.897L16.823,9.891L16.758,9.885L16.692,9.881L16.625,9.877L16.559,9.874L16.492,9.872L16.425,9.87L16.358,9.87L16.291,9.87Z" style="" fill="black"/></g><g transform="matrix(3.33333,0,0,3.33333,2.5,2.5)"><path d="M15.05,20.199L15.1,20.199L15.15,20.2L15.2,20.201L15.25,20.202L15.3,20.203L15.35,20.205L15.4,20.207L15.45,20.209L15.499,20.211L15.549,20.214L15.598,20.217L15.648,20.22L15.697,20.223L15.747,20.227L15.796,20.231L15.845,20.235L15.894,20.239L15.943,20.244L15.992,20.249L16.041,20.254L16.09,20.259L16.139,20.265L16.187,20.27L16.236,20.276L16.285,20.283L16.333,20.289L16.381,20.296L16.43,20.303L16.478,20.31L16.526,20.317L16.574,20.325L16.622,20.333L16.67,20.341L16.718,20.35L16.766,20.358L16.813,20.367L16.861,20.376L16.909,20.385L16.956,20.395L17.003,20.405L17.051,20.415L17.098,20.425L17.145,20.435L17.192,20.446L17.239,20.457L17.286,20.468L17.333,20.479L17.379,20.491L17.426,20.502L17.472,20.514L17.519,20.527L17.565,20.539L17.611,20.552L17.658,20.565L17.704,20.578L17.75,20.591L17.795,20.605L17.841,20.618L17.887,20.632L17.933,20.647L17.978,20.661L18.023,20.676L18.069,20.69L18.114,20.706L18.159,20.721L18.204,20.736L18.249,20.752L18.294,20.768L18.338,20.784L18.383,20.8L18.428,20.817L18.472,20.834L18.516,20.851L18.56,20.868L18.605,20.885L18.649,20.903L18.692,20.92L18.736,20.938L18.78,20.957L18.823,20.975L18.867,20.994L18.91,21.012L18.954,21.032L18.997,21.051L19.04,21.07L19.083,21.09L19.125,21.11L19.168,21.13L19.211,21.15L19.253,21.17L19.296,21.191L19.338,21.212L19.38,21.233L19.422,21.254L19.464,21.275L19.506,21.297L19.547,21.319L19.589,21.341L19.63,21.363L19.671,21.385L19.713,21.408L19.754,21.431L19.795,21.453L19.836,21.477L19.876,21.5L19.957,21.547L20.038,21.595L20.118,21.644L20.197,21.693L20.276,21.743L20.355,21.794L20.433,21.846L20.51,21.898L20.587,21.951L20.664,22.005L20.74,22.06L20.815,22.115L20.89,22.171L20.964,22.228L21.038,22.285L21.111,22.343L21.183,22.401L21.255,22.461L21.327,22.521L21.398,22.581L21.468,22.643L21.537,22.705L21.606,22.767L21.675,22.831L21.743,22.895L21.81,22.959L21.877,23.024L21.943,23.09L22.008,23.157L22.073,23.224L22.137,23.291L22.2,23.36L22.263,23.428L22.325,23.498L22.387,23.568L22.448,23.639L22.508,23.71L22.567,23.782L22.626,23.854L22.684,23.927L22.742,24L22.799,24.074L22.855,24.149L22.91,24.224L22.965,24.3L23.019,24.376L23.072,24.453L23.125,24.53L23.177,24.608L23.228,24.687L23.278,24.765L23.328,24.845L23.377,24.925L23.425,25.005L23.473,25.086L23.496,25.127L23.519,25.167L23.542,25.208L23.565,25.249L23.588,25.29L23.61,25.332L23.633,25.373L23.655,25.414L23.677,25.456L23.698,25.498L23.72,25.54L23.741,25.581L23.762,25.624L23.783,25.666L23.804,25.708L23.825,25.75L23.845,25.793L23.865,25.836L23.885,25.878L23.905,25.921L23.924,25.964L23.944,26.007L23.963,26.05L23.982,26.094L24,26.137L24.019,26.18L24.037,26.224L24.055,26.268L24.073,26.312L24.091,26.356L24.108,26.4L24.126,26.444L24.143,26.488L24.16,26.532L24.176,26.577L24.193,26.621L24.209,26.666L24.225,26.711L24.241,26.756L24.257,26.801L24.197,26.847L24.137,26.894L24.076,26.94L24.016,26.986L23.955,27.032L23.894,27.077L23.832,27.122L23.771,27.167L23.709,27.211L23.647,27.255L23.585,27.299L23.522,27.342L23.459,27.386L23.396,27.429L23.333,27.471L23.27,27.513L23.206,27.555L23.142,27.597L23.078,27.638L23.014,27.679L22.949,27.72L22.885,27.76L22.82,27.8L22.755,27.84L22.689,27.879L22.624,27.918L22.558,27.957L22.492,27.995L22.425,28.034L22.359,28.071L22.292,28.109L22.225,28.146L22.158,28.183L22.091,28.219L22.023,28.255L21.956,28.291L21.888,28.326L21.82,28.361L21.751,28.396L21.683,28.431L21.614,28.465L21.545,28.498L21.476,28.532L21.407,28.565L21.337,28.597L21.268,28.63L21.198,28.662L21.128,28.693L21.057,28.725L20.987,28.756L20.916,28.786L20.845,28.817L20.774,28.846L20.703,28.876L20.632,28.905L20.56,28.934L20.489,28.963L20.417,28.991L20.345,29.018L20.272,29.046L20.2,29.073L20.127,29.099L20.054,29.126L19.981,29.152L19.908,29.177L19.835,29.202L19.761,29.227L19.688,29.252L19.614,29.276L19.54,29.3L19.466,29.323L19.391,29.346L19.317,29.368L19.242,29.391L19.167,29.413L19.092,29.434L19.017,29.455L18.942,29.476L18.866,29.496L18.791,29.516L18.715,29.536L18.639,29.555L18.563,29.574L18.487,29.592L18.41,29.61L18.334,29.627L18.257,29.645L18.18,29.662L18.104,29.678L18.026,29.694L17.949,29.71L17.872,29.725L17.794,29.74L17.717,29.754L17.639,29.768L17.561,29.782L17.483,29.795L17.404,29.808L17.326,29.82L17.248,29.832L17.169,29.844L17.09,29.855L17.011,29.866L16.932,29.876L16.853,29.886L16.774,29.896L16.694,29.905L16.615,29.914L16.535,29.922L16.456,29.93L16.376,29.938L16.296,29.945L16.216,29.951L16.135,29.958L16.055,29.963L15.974,29.969L15.894,29.974L15.813,29.978L15.732,29.982L15.651,29.986L15.57,29.989L15.489,29.992L15.408,29.995L15.327,29.997L15.245,29.998L15.163,29.999L15.082,30L15,30L14.918,30L14.837,29.999L14.755,29.998L14.673,29.997L14.592,29.995L14.511,29.992L14.43,29.989L14.349,29.986L14.268,29.982L14.187,29.978L14.106,29.974L14.026,29.969L13.945,29.963L13.865,29.958L13.784,29.951L13.704,29.945L13.624,29.938L13.544,29.93L13.465,29.922L13.385,29.914L13.306,29.905L13.226,29.896L13.147,29.886L13.068,29.876L12.989,29.866L12.91,29.855L12.831,29.844L12.752,29.832L12.674,29.82L12.596,29.808L12.517,29.795L12.439,29.782L12.361,29.768L12.283,29.754L12.206,29.74L12.128,29.725L12.051,29.71L11.974,29.694L11.896,29.678L11.82,29.662L11.743,29.645L11.666,29.627L11.59,29.61L11.513,29.592L11.437,29.574L11.361,29.555L11.285,29.536L11.209,29.516L11.134,29.496L11.058,29.476L10.983,29.455L10.908,29.434L10.833,29.413L10.758,29.391L10.683,29.368L10.609,29.346L10.534,29.323L10.46,29.3L10.386,29.276L10.312,29.252L10.239,29.227L10.165,29.202L10.092,29.177L10.019,29.152L9.946,29.126L9.873,29.099L9.8,29.073L9.728,29.046L9.655,29.018L9.583,28.991L9.511,28.963L9.44,28.934L9.368,28.905L9.297,28.876L9.226,28.846L9.155,28.817L9.084,28.786L9.013,28.756L8.943,28.725L8.872,28.693L8.802,28.662L8.732,28.63L8.663,28.597L8.593,28.565L8.524,28.532L8.455,28.498L8.386,28.465L8.317,28.431L8.249,28.396L8.18,28.361L8.112,28.326L8.044,28.291L7.977,28.255L7.909,28.219L7.842,28.183L7.775,28.146L7.708,28.109L7.641,28.071L7.575,28.034L7.508,27.995L7.442,27.957L7.376,27.918L7.311,27.879L7.245,27.84L7.18,27.8L7.115,27.76L7.051,27.72L6.986,27.679L6.922,27.638L6.858,27.597L6.794,27.555L6.73,27.513L6.667,27.471L6.604,27.429L6.541,27.386L6.478,27.342L6.415,27.299L6.353,27.255L6.291,27.211L6.229,27.167L6.168,27.122L6.106,27.077L6.045,27.032L5.984,26.986L5.924,26.94L5.863,26.894L5.803,26.847L5.743,26.801L5.759,26.756L5.775,26.711L5.791,26.666L5.807,26.621L5.824,26.577L5.84,26.532L5.857,26.488L5.874,26.444L5.892,26.4L5.909,26.356L5.927,26.312L5.945,26.268L5.963,26.224L5.981,26.18L6,26.137L6.018,26.094L6.037,26.05L6.056,26.007L6.076,25.964L6.095,25.921L6.115,25.878L6.135,25.836L6.155,25.793L6.175,25.75L6.196,25.708L6.217,25.666L6.238,25.624L6.259,25.581L6.28,25.54L6.302,25.498L6.323,25.456L6.345,25.414L6.367,25.373L6.39,25.332L6.412,25.29L6.435,25.249L6.458,25.208L6.481,25.167L6.504,25.127L6.527,25.086L6.575,25.005L6.623,24.925L6.672,24.845L6.722,24.765L6.772,24.687L6.823,24.608L6.875,24.53L6.928,24.453L6.981,24.376L7.035,24.3L7.09,24.224L7.145,24.149L7.201,24.074L7.258,24L7.316,23.927L7.374,23.854L7.433,23.782L7.492,23.71L7.552,23.639L7.613,23.568L7.675,23.498L7.737,23.428L7.8,23.36L7.863,23.291L7.927,23.224L7.992,23.157L8.057,23.09L8.123,23.024L8.19,22.959L8.257,22.895L8.325,22.831L8.394,22.767L8.463,22.705L8.532,22.643L8.602,22.581L8.673,22.521L8.745,22.461L8.817,22.401L8.889,22.343L8.962,22.285L9.036,22.228L9.11,22.171L9.185,22.115L9.26,22.06L9.336,22.005L9.413,21.951L9.49,21.898L9.567,21.846L9.645,21.794L9.724,21.743L9.803,21.693L9.882,21.644L9.962,21.595L10.043,21.547L10.124,21.5L10.164,21.477L10.205,21.453L10.246,21.431L10.287,21.408L10.329,21.385L10.37,21.363L10.411,21.341L10.453,21.319L10.494,21.297L10.536,21.275L10.578,21.254L10.62,21.233L10.662,21.212L10.704,21.191L10.747,21.17L10.789,21.15L10.832,21.13L10.875,21.11L10.917,21.09L10.96,21.07L11.003,21.051L11.046,21.032L11.09,21.012L11.133,20.994L11.177,20.975L11.22,20.957L11.264,20.938L11.308,20.92L11.351,20.903L11.395,20.885L11.44,20.868L11.484,20.851L11.528,20.834L11.572,20.817L11.617,20.8L11.662,20.784L11.706,20.768L11.751,20.752L11.796,20.736L11.841,20.721L11.886,20.706L11.931,20.69L11.977,20.676L12.022,20.661L12.067,20.647L12.113,20.632L12.159,20.618L12.205,20.605L12.25,20.591L12.296,20.578L12.342,20.565L12.389,20.552L12.435,20.539L12.481,20.527L12.528,20.514L12.574,20.502L12.621,20.491L12.667,20.479L12.714,20.468L12.761,20.457L12.808,20.446L12.855,20.435L12.902,20.425L12.949,20.415L12.997,20.405L13.044,20.395L13.091,20.385L13.139,20.376L13.187,20.367L13.234,20.358L13.282,20.35L13.33,20.341L13.378,20.333L13.426,20.325L13.474,20.317L13.522,20.31L13.57,20.303L13.619,20.296L13.667,20.289L13.715,20.283L13.764,20.276L13.813,20.27L13.861,20.265L13.91,20.259L13.959,20.254L14.008,20.249L14.057,20.244L14.106,20.239L14.155,20.235L14.204,20.231L14.253,20.227L14.303,20.223L14.352,20.22L14.402,20.217L14.451,20.214L14.501,20.211L14.55,20.209L14.6,20.207L14.65,20.205L14.7,20.203L14.75,20.202L14.8,20.201L14.85,20.2L14.9,20.199L14.95,20.199L15,20.199L15.05,20.199ZM14.955,21.249L14.91,21.249L14.865,21.25L14.821,21.251L14.776,21.252L14.731,21.253L14.687,21.254L14.642,21.256L14.598,21.258L14.553,21.26L14.509,21.263L14.465,21.265L14.421,21.268L14.377,21.271L14.333,21.274L14.289,21.278L14.245,21.281L14.201,21.285L14.157,21.289L14.113,21.293L14.07,21.298L14.026,21.303L13.982,21.308L13.939,21.313L13.896,21.318L13.852,21.324L13.809,21.33L13.766,21.336L13.723,21.342L13.68,21.348L13.637,21.355L13.594,21.362L13.551,21.369L13.508,21.376L13.465,21.383L13.423,21.391L13.38,21.399L13.338,21.407L13.295,21.415L13.253,21.424L13.211,21.432L13.169,21.441L13.126,21.45L13.084,21.46L13.042,21.469L13.001,21.479L12.959,21.489L12.917,21.499L12.875,21.509L12.834,21.52L12.792,21.531L12.751,21.541L12.71,21.553L12.668,21.564L12.627,21.575L12.586,21.587L12.545,21.599L12.504,21.611L12.463,21.623L12.423,21.636L12.382,21.648L12.342,21.661L12.301,21.674L12.261,21.687L12.22,21.701L12.18,21.715L12.14,21.728L12.1,21.742L12.06,21.757L12.02,21.771L11.98,21.785L11.941,21.8L11.901,21.815L11.861,21.83L11.822,21.846L11.783,21.861L11.743,21.877L11.704,21.893L11.665,21.909L11.626,21.925L11.587,21.941L11.549,21.958L11.51,21.975L11.471,21.992L11.433,22.009L11.395,22.026L11.356,22.044L11.318,22.061L11.28,22.079L11.242,22.097L11.204,22.115L11.166,22.134L11.129,22.152L11.091,22.171L11.054,22.19L11.016,22.209L10.979,22.228L10.942,22.248L10.905,22.268L10.868,22.287L10.831,22.307L10.794,22.327L10.757,22.348L10.721,22.368L10.684,22.389L10.649,22.409L10.576,22.452L10.504,22.495L10.432,22.538L10.361,22.582L10.291,22.627L10.221,22.673L10.151,22.719L10.082,22.765L10.013,22.813L9.945,22.861L9.877,22.91L9.81,22.959L9.743,23.009L9.677,23.059L9.611,23.111L9.546,23.162L9.481,23.215L9.416,23.268L9.353,23.321L9.289,23.376L9.227,23.43L9.164,23.486L9.103,23.542L9.042,23.598L8.981,23.655L8.921,23.713L8.861,23.771L8.802,23.83L8.744,23.889L8.686,23.949L8.629,24.01L8.572,24.071L8.516,24.132L8.46,24.194L8.405,24.257L8.351,24.32L8.297,24.384L8.244,24.448L8.192,24.513L8.14,24.578L8.088,24.643L8.037,24.71L7.987,24.776L7.938,24.843L7.889,24.911L7.841,24.979L7.793,25.048L7.746,25.117L7.7,25.186L7.654,25.256L7.609,25.327L7.565,25.398L7.521,25.469L7.478,25.541L7.435,25.614L7.415,25.649L7.394,25.685L7.373,25.722L7.353,25.759L7.333,25.795L7.313,25.832L7.293,25.869L7.273,25.906L7.254,25.943L7.234,25.98L7.215,26.018L7.196,26.055L7.177,26.093L7.158,26.13L7.14,26.168L7.122,26.206L7.103,26.244L7.085,26.282L7.068,26.32L7.05,26.358L7.033,26.396L7.015,26.435L7.015,26.437L7.075,26.479L7.134,26.519L7.192,26.559L7.251,26.599L7.31,26.638L7.369,26.677L7.429,26.716L7.488,26.754L7.548,26.792L7.608,26.83L7.668,26.868L7.729,26.905L7.789,26.942L7.85,26.978L7.911,27.015L7.972,27.051L8.034,27.086L8.096,27.122L8.157,27.157L8.219,27.192L8.282,27.226L8.344,27.26L8.406,27.294L8.469,27.328L8.532,27.361L8.595,27.394L8.659,27.427L8.722,27.459L8.786,27.491L8.85,27.523L8.914,27.554L8.978,27.585L9.043,27.616L9.107,27.646L9.172,27.676L9.237,27.706L9.302,27.735L9.367,27.765L9.433,27.793L9.499,27.822L9.564,27.85L9.63,27.878L9.697,27.905L9.763,27.932L9.83,27.959L9.896,27.986L9.963,28.012L10.03,28.037L10.097,28.063L10.165,28.088L10.232,28.113L10.3,28.137L10.368,28.161L10.436,28.185L10.504,28.209L10.572,28.232L10.641,28.254L10.709,28.277L10.778,28.299L10.847,28.321L10.916,28.342L10.985,28.363L11.055,28.384L11.124,28.404L11.194,28.424L11.264,28.443L11.334,28.463L11.404,28.481L11.474,28.5L11.545,28.518L11.615,28.536L11.686,28.553L11.757,28.571L11.828,28.587L11.899,28.604L11.97,28.62L12.041,28.635L12.113,28.651L12.185,28.665L12.256,28.68L12.328,28.694L12.4,28.708L12.473,28.721L12.545,28.734L12.618,28.747L12.69,28.759L12.763,28.771L12.836,28.783L12.909,28.794L12.982,28.805L13.055,28.815L13.128,28.825L13.202,28.835L13.275,28.844L13.349,28.853L13.423,28.862L13.497,28.87L13.571,28.878L13.645,28.885L13.72,28.892L13.794,28.899L13.869,28.905L13.943,28.911L14.018,28.916L14.093,28.921L14.168,28.926L14.243,28.93L14.318,28.934L14.394,28.937L14.469,28.94L14.545,28.943L14.62,28.945L14.696,28.947L14.772,28.948L14.848,28.949L14.924,28.95L15,28.95L15.076,28.95L15.152,28.949L15.228,28.948L15.304,28.947L15.38,28.945L15.455,28.943L15.531,28.94L15.606,28.937L15.682,28.934L15.757,28.93L15.832,28.926L15.907,28.921L15.982,28.916L16.057,28.911L16.131,28.905L16.206,28.899L16.28,28.892L16.355,28.885L16.429,28.878L16.503,28.87L16.577,28.862L16.651,28.853L16.725,28.844L16.798,28.835L16.872,28.825L16.945,28.815L17.018,28.805L17.091,28.794L17.164,28.783L17.237,28.771L17.31,28.759L17.382,28.747L17.455,28.734L17.527,28.721L17.6,28.708L17.672,28.694L17.744,28.68L17.815,28.665L17.887,28.651L17.959,28.635L18.03,28.62L18.101,28.604L18.172,28.587L18.243,28.571L18.314,28.553L18.385,28.536L18.455,28.518L18.526,28.5L18.596,28.481L18.666,28.463L18.736,28.443L18.806,28.424L18.876,28.404L18.945,28.384L19.015,28.363L19.084,28.342L19.153,28.321L19.222,28.299L19.291,28.277L19.359,28.254L19.428,28.232L19.496,28.209L19.564,28.185L19.632,28.161L19.7,28.137L19.768,28.113L19.835,28.088L19.903,28.063L19.97,28.037L20.037,28.012L20.104,27.986L20.17,27.959L20.237,27.932L20.303,27.905L20.37,27.878L20.436,27.85L20.501,27.822L20.567,27.793L20.633,27.765L20.698,27.735L20.763,27.706L20.828,27.676L20.893,27.646L20.957,27.616L21.022,27.585L21.086,27.554L21.15,27.523L21.214,27.491L21.278,27.459L21.341,27.427L21.405,27.394L21.468,27.361L21.531,27.328L21.594,27.294L21.656,27.26L21.718,27.226L21.781,27.192L21.843,27.157L21.904,27.122L21.966,27.086L22.028,27.051L22.089,27.015L22.15,26.978L22.211,26.942L22.271,26.905L22.332,26.868L22.392,26.83L22.452,26.792L22.512,26.754L22.571,26.716L22.631,26.677L22.69,26.638L22.749,26.599L22.808,26.559L22.866,26.519L22.925,26.479L22.983,26.439L22.985,26.437L22.985,26.435L22.967,26.396L22.95,26.358L22.932,26.32L22.915,26.282L22.897,26.244L22.878,26.206L22.86,26.168L22.842,26.13L22.823,26.093L22.804,26.055L22.785,26.018L22.766,25.98L22.746,25.943L22.727,25.906L22.707,25.869L22.687,25.832L22.667,25.795L22.647,25.759L22.627,25.722L22.606,25.685L22.585,25.649L22.565,25.614L22.522,25.541L22.479,25.469L22.435,25.398L22.391,25.327L22.346,25.256L22.3,25.186L22.254,25.117L22.207,25.048L22.159,24.979L22.111,24.911L22.062,24.843L22.013,24.776L21.963,24.71L21.912,24.643L21.86,24.578L21.808,24.513L21.756,24.448L21.703,24.384L21.649,24.32L21.595,24.257L21.54,24.194L21.484,24.132L21.428,24.071L21.371,24.01L21.314,23.949L21.256,23.889L21.198,23.83L21.139,23.771L21.079,23.713L21.019,23.655L20.958,23.598L20.897,23.542L20.836,23.486L20.773,23.43L20.711,23.376L20.647,23.321L20.584,23.268L20.519,23.215L20.454,23.162L20.389,23.111L20.323,23.059L20.257,23.009L20.19,22.959L20.123,22.91L20.055,22.861L19.987,22.813L19.918,22.765L19.849,22.719L19.779,22.673L19.709,22.627L19.639,22.582L19.568,22.538L19.496,22.495L19.424,22.452L19.351,22.409L19.316,22.389L19.279,22.368L19.243,22.348L19.206,22.327L19.169,22.307L19.132,22.287L19.095,22.268L19.058,22.248L19.021,22.228L18.984,22.209L18.946,22.19L18.909,22.171L18.871,22.152L18.834,22.134L18.796,22.115L18.758,22.097L18.72,22.079L18.682,22.061L18.644,22.044L18.605,22.026L18.567,22.009L18.529,21.992L18.49,21.975L18.451,21.958L18.413,21.941L18.374,21.925L18.335,21.909L18.296,21.893L18.257,21.877L18.217,21.861L18.178,21.846L18.139,21.83L18.099,21.815L18.059,21.8L18.02,21.785L17.98,21.771L17.94,21.757L17.9,21.742L17.86,21.728L17.82,21.715L17.78,21.701L17.739,21.687L17.699,21.674L17.658,21.661L17.618,21.648L17.577,21.636L17.536,21.623L17.496,21.611L17.455,21.599L17.414,21.587L17.373,21.575L17.332,21.564L17.29,21.553L17.249,21.541L17.208,21.531L17.166,21.52L17.125,21.509L17.083,21.499L17.041,21.489L16.999,21.479L16.958,21.469L16.916,21.46L16.874,21.45L16.831,21.441L16.789,21.432L16.747,21.424L16.705,21.415L16.662,21.407L16.62,21.399L16.577,21.391L16.535,21.383L16.492,21.376L16.449,21.369L16.406,21.362L16.363,21.355L16.32,21.348L16.277,21.342L16.234,21.336L16.191,21.33L16.148,21.324L16.104,21.318L16.061,21.313L16.018,21.308L15.974,21.303L15.93,21.298L15.887,21.293L15.843,21.289L15.799,21.285L15.755,21.281L15.711,21.278L15.667,21.274L15.623,21.271L15.579,21.268L15.535,21.265L15.491,21.263L15.447,21.26L15.402,21.258L15.358,21.256L15.313,21.254L15.269,21.253L15.224,21.252L15.179,21.251L15.135,21.25L15.09,21.249L15.045,21.249L15,21.249L14.955,21.249Z" style="" fill="black"/></g></svg>